<svg width="28" height="14" viewBox="0 0 28 14" fill="none" xmlns="http://www.w3.org/2000/svg">
<path d="M1.16665 13.9998C0.836096 13.9998 0.559018 13.8879 0.335411 13.6643C0.111804 13.4407 0 13.1637 0 12.8331V12.1623C0 11.3262 0.42777 10.6456 1.28331 10.1207C2.13885 9.59566 3.26661 9.33317 4.66658 9.33317C4.91936 9.33317 5.16241 9.33803 5.39574 9.34775C5.62907 9.35747 5.85267 9.38178 6.06656 9.42066C5.79434 9.82899 5.59018 10.2568 5.45407 10.704C5.31796 11.1512 5.24991 11.6178 5.24991 12.104V13.9998H1.16665ZM8.16652 13.9998C7.83597 13.9998 7.55889 13.8879 7.33529 13.6643C7.11168 13.4407 6.99988 13.1637 6.99988 12.8331V12.104C6.99988 11.4817 7.17001 10.913 7.51028 10.3977C7.85055 9.88246 8.3318 9.43039 8.95401 9.04151C9.57622 8.65262 10.32 8.36096 11.1852 8.16652C12.0505 7.97208 12.9887 7.87486 13.9998 7.87486C15.0303 7.87486 15.9782 7.97208 16.8435 8.16652C17.7087 8.36096 18.4524 8.65262 19.0747 9.04151C19.6969 9.43039 20.1733 9.88246 20.5038 10.3977C20.8344 10.913 20.9996 11.4817 20.9996 12.104V12.8331C20.9996 13.1637 20.8878 13.4407 20.6642 13.6643C20.4406 13.8879 20.1635 13.9998 19.833 13.9998H8.16652ZM22.7496 13.9998V12.104C22.7496 11.5984 22.6864 11.122 22.56 10.6748C22.4336 10.2276 22.244 9.80955 21.9913 9.42066C22.2052 9.38178 22.4239 9.35747 22.6475 9.34775C22.8711 9.33803 23.0996 9.33317 23.3329 9.33317C24.7329 9.33317 25.8607 9.5908 26.7162 10.1061C27.5717 10.6213 27.9995 11.3067 27.9995 12.1623V12.8331C27.9995 13.1637 27.8877 13.4407 27.6641 13.6643C27.4405 13.8879 27.1634 13.9998 26.8329 13.9998H22.7496ZM9.479 11.6665H18.5497C18.3552 11.2776 17.8157 10.9373 16.9309 10.6456C16.0462 10.354 15.0692 10.2082 13.9998 10.2082C12.9303 10.2082 11.9533 10.354 11.0686 10.6456C10.1838 10.9373 9.65399 11.2776 9.479 11.6665ZM4.66658 8.16652C4.02493 8.16652 3.47563 7.93805 3.0187 7.48112C2.56176 7.02418 2.33329 6.47488 2.33329 5.83323C2.33329 5.17213 2.56176 4.61797 3.0187 4.17076C3.47563 3.72354 4.02493 3.49994 4.66658 3.49994C5.32768 3.49994 5.88184 3.72354 6.32905 4.17076C6.77627 4.61797 6.99988 5.17213 6.99988 5.83323C6.99988 6.47488 6.77627 7.02418 6.32905 7.48112C5.88184 7.93805 5.32768 8.16652 4.66658 8.16652ZM23.3329 8.16652C22.6913 8.16652 22.142 7.93805 21.685 7.48112C21.2281 7.02418 20.9996 6.47488 20.9996 5.83323C20.9996 5.17213 21.2281 4.61797 21.685 4.17076C22.142 3.72354 22.6913 3.49994 23.3329 3.49994C23.994 3.49994 24.5482 3.72354 24.9954 4.17076C25.4426 4.61797 25.6662 5.17213 25.6662 5.83323C25.6662 6.47488 25.4426 7.02418 24.9954 7.48112C24.5482 7.93805 23.994 8.16652 23.3329 8.16652ZM13.9998 6.99988C13.0275 6.99988 12.2012 6.6596 11.5206 5.97906C10.8401 5.29852 10.4998 4.47214 10.4998 3.49994C10.4998 2.50829 10.8401 1.67705 11.5206 1.00623C12.2012 0.335411 13.0275 0 13.9998 0C14.9914 0 15.8226 0.335411 16.4935 1.00623C17.1643 1.67705 17.4997 2.50829 17.4997 3.49994C17.4997 4.47214 17.1643 5.29852 16.4935 5.97906C15.8226 6.6596 14.9914 6.99988 13.9998 6.99988ZM13.9998 4.66658C14.3303 4.66658 14.6074 4.55478 14.831 4.33117C15.0546 4.10757 15.1664 3.83049 15.1664 3.49994C15.1664 3.16939 15.0546 2.89231 14.831 2.6687C14.6074 2.4451 14.3303 2.33329 13.9998 2.33329C13.6692 2.33329 13.3921 2.4451 13.1685 2.6687C12.9449 2.89231 12.8331 3.16939 12.8331 3.49994C12.8331 3.83049 12.9449 4.10757 13.1685 4.33117C13.3921 4.55478 13.6692 4.66658 13.9998 4.66658Z" fill="#424242"/>
</svg>
