<svg width="221" height="35" viewBox="0 0 221 35" fill="none" xmlns="http://www.w3.org/2000/svg">
<path d="M7.50111 27.7616C5.98217 27.7616 4.54501 27.5513 3.18964 27.1307C1.83427 26.6867 0.771002 26.1375 -0.000156466 25.4832L1.12153 23.5203C1.86932 24.0811 2.82743 24.5718 3.99585 24.9925C5.16427 25.3897 6.39111 25.5884 7.67638 25.5884C9.42901 25.5884 10.6909 25.3196 11.4621 24.7822C12.2332 24.2213 12.6188 23.4852 12.6188 22.5738C12.6188 21.8962 12.3968 21.3704 11.9528 20.9965C11.5322 20.5992 10.9713 20.3071 10.2703 20.1201C9.56922 19.9098 8.78638 19.7346 7.92175 19.5944C7.05711 19.4541 6.19248 19.2906 5.32785 19.1036C4.48658 18.9167 3.71543 18.6479 3.01437 18.2974C2.31332 17.9235 1.74079 17.4211 1.29679 16.7901C0.87616 16.1592 0.665844 15.3179 0.665844 14.2664C0.665844 13.2615 0.946266 12.3618 1.50711 11.5673C2.06795 10.7728 2.88585 10.1535 3.96079 9.70951C5.05911 9.24214 6.39111 9.00846 7.9568 9.00846C9.14859 9.00846 10.3404 9.17203 11.5322 9.49919C12.724 9.80298 13.7054 10.2119 14.4766 10.726L13.39 12.724C12.5721 12.1632 11.6957 11.7659 10.761 11.5322C9.82627 11.2752 8.89154 11.1467 7.9568 11.1467C6.29764 11.1467 5.0708 11.4388 4.27627 12.023C3.50511 12.5838 3.11953 13.3082 3.11953 14.1962C3.11953 14.8973 3.32985 15.4465 3.75048 15.8437C4.19448 16.241 4.76701 16.5565 5.46806 16.7901C6.19248 17.0005 6.97532 17.1757 7.81659 17.3159C8.68122 17.4561 9.53417 17.6314 10.3754 17.8417C11.2401 18.0287 12.0229 18.2974 12.724 18.6479C13.4484 18.9751 14.0209 19.4541 14.4415 20.0851C14.8855 20.6927 15.1075 21.4989 15.1075 22.5037C15.1075 23.5787 14.8038 24.5134 14.1962 25.3079C13.612 26.0791 12.7473 26.6867 11.6023 27.1307C10.4806 27.5513 9.11354 27.7616 7.50111 27.7616ZM27.1755 27.7616C25.3995 27.7616 23.7988 27.3644 22.3733 26.5698C20.9712 25.7519 19.8612 24.6419 19.0433 23.2398C18.2254 21.8144 17.8165 20.1903 17.8165 18.3675C17.8165 16.5214 18.2254 14.8973 19.0433 13.4952C19.8612 12.0931 20.9712 10.9948 22.3733 10.2002C23.7754 9.40572 25.3761 9.00846 27.1755 9.00846C28.9983 9.00846 30.6107 9.40572 32.0128 10.2002C33.4383 10.9948 34.5483 12.0931 35.3428 13.4952C36.1607 14.8973 36.5696 16.5214 36.5696 18.3675C36.5696 20.1903 36.1607 21.8144 35.3428 23.2398C34.5483 24.6419 33.4383 25.7519 32.0128 26.5698C30.5873 27.3644 28.9749 27.7616 27.1755 27.7616ZM27.1755 25.5533C28.5075 25.5533 29.6876 25.2612 30.7158 24.677C31.744 24.0694 32.5503 23.2282 33.1345 22.1532C33.742 21.0549 34.0458 19.793 34.0458 18.3675C34.0458 16.9187 33.742 15.6568 33.1345 14.5818C32.5503 13.5069 31.744 12.6773 30.7158 12.0931C29.6876 11.4855 28.5192 11.1817 27.2106 11.1817C25.9019 11.1817 24.7335 11.4855 23.7053 12.0931C22.6771 12.6773 21.8592 13.5069 21.2516 14.5818C20.644 15.6568 20.3402 16.9187 20.3402 18.3675C20.3402 19.793 20.644 21.0549 21.2516 22.1532C21.8592 23.2282 22.6771 24.0694 23.7053 24.677C24.7335 25.2612 25.8903 25.5533 27.1755 25.5533ZM49.2571 27.7616C47.6914 27.7616 46.3243 27.4695 45.1559 26.8853C43.9875 26.3011 43.0761 25.4248 42.4218 24.2564C41.7908 23.0879 41.4754 21.6274 41.4754 19.8748V9.18372H43.9641V19.5944C43.9641 21.5573 44.4432 23.0412 45.4013 24.046C46.3827 25.0275 47.7498 25.5183 49.5024 25.5183C50.7877 25.5183 51.8977 25.2612 52.8324 24.7471C53.7905 24.2096 54.515 23.4385 55.0057 22.4336C55.5198 21.4288 55.7768 20.2253 55.7768 18.8232V9.18372H58.2656V27.5864H55.882V22.5388L56.2676 23.4502C55.6834 24.8055 54.772 25.8688 53.5335 26.6399C52.3183 27.3877 50.8928 27.7616 49.2571 27.7616ZM71.0204 27.7616C69.2911 27.7616 67.9591 27.2943 67.0244 26.3595C66.0896 25.4248 65.6223 24.1045 65.6223 22.3986V5.11761H68.111V22.2584C68.111 23.3333 68.3797 24.1629 68.9172 24.7471C69.4781 25.3313 70.2726 25.6234 71.3008 25.6234C72.3991 25.6234 73.3105 25.3079 74.0349 24.677L74.9112 26.4647C74.4205 26.9087 73.8246 27.2358 73.1235 27.4462C72.4458 27.6565 71.7448 27.7616 71.0204 27.7616ZM62.3273 11.2518V9.18372H73.7194V11.2518H62.3273ZM88.8359 9.00846C90.3315 9.00846 91.6401 9.30056 92.7618 9.88477C93.9068 10.4456 94.7948 11.3102 95.4258 12.4787C96.0801 13.6471 96.4073 15.1193 96.4073 16.8953V27.5864H93.9185V17.1407C93.9185 15.2011 93.4278 13.7406 92.4463 12.7591C91.4882 11.7542 90.1328 11.2518 88.3802 11.2518C87.0716 11.2518 85.9265 11.5206 84.945 12.058C83.9869 12.5721 83.2391 13.3316 82.7017 14.3365C82.1876 15.3179 81.9305 16.5097 81.9305 17.9118V27.5864H79.4418V1.57729H81.9305V14.2313L81.4398 13.2849C82.024 11.9529 82.9587 10.913 84.244 10.1652C85.5293 9.39403 87.0599 9.00846 88.8359 9.00846ZM113.33 27.8668C111.741 27.8668 110.351 27.5163 109.159 26.8152C107.967 26.1142 107.032 25.0509 106.355 23.6254C105.7 22.1766 105.373 20.3538 105.373 18.1572C105.373 15.9372 105.689 14.1145 106.32 12.689C106.95 11.2635 107.862 10.2002 109.054 9.49919C110.245 8.79814 111.671 8.44761 113.33 8.44761C115.106 8.44761 116.695 8.85656 118.097 9.67446C119.523 10.469 120.644 11.5907 121.462 13.0395C122.304 14.4884 122.724 16.1943 122.724 18.1572C122.724 20.1435 122.304 21.8611 121.462 23.3099C120.644 24.7588 119.523 25.8805 118.097 26.675C116.695 27.4695 115.106 27.8668 113.33 27.8668ZM102.183 34.3866V8.72803H107.406V12.5838L107.301 18.1923L107.652 23.7656V34.3866H102.183ZM112.384 23.38C113.295 23.38 114.101 23.1697 114.802 22.7491C115.527 22.3285 116.099 21.7326 116.52 20.9614C116.964 20.1669 117.186 19.2321 117.186 18.1572C117.186 17.0589 116.964 16.1241 116.52 15.353C116.099 14.5818 115.527 13.9859 114.802 13.5653C114.101 13.1447 113.295 12.9344 112.384 12.9344C111.472 12.9344 110.654 13.1447 109.93 13.5653C109.206 13.9859 108.633 14.5818 108.212 15.353C107.792 16.1241 107.581 17.0589 107.581 18.1572C107.581 19.2321 107.792 20.1669 108.212 20.9614C108.633 21.7326 109.206 22.3285 109.93 22.7491C110.654 23.1697 111.472 23.38 112.384 23.38ZM137.644 27.5864V23.9058L137.293 23.0996V16.5097C137.293 15.3413 136.931 14.4299 136.207 13.7756C135.506 13.1213 134.419 12.7941 132.947 12.7941C131.942 12.7941 130.949 12.9577 129.967 13.2849C129.009 13.5887 128.191 14.0093 127.514 14.5468L125.551 10.726C126.579 10.0016 127.818 9.44077 129.266 9.04351C130.715 8.64624 132.187 8.44761 133.683 8.44761C136.557 8.44761 138.789 9.1253 140.378 10.4807C141.967 11.836 142.762 13.9509 142.762 16.8252V27.5864H137.644ZM131.895 27.8668C130.423 27.8668 129.161 27.6214 128.11 27.1307C127.058 26.6166 126.252 25.9272 125.691 25.0626C125.13 24.1979 124.85 23.2282 124.85 22.1532C124.85 21.0315 125.118 20.05 125.656 19.2088C126.217 18.3675 127.093 17.7132 128.285 17.2458C129.477 16.7551 131.031 16.5097 132.947 16.5097H137.959V19.6995H133.543C132.258 19.6995 131.37 19.9098 130.879 20.3305C130.411 20.7511 130.178 21.2769 130.178 21.9078C130.178 22.6089 130.447 23.1697 130.984 23.5904C131.545 23.9876 132.304 24.1863 133.262 24.1863C134.174 24.1863 134.992 23.9759 135.716 23.5553C136.441 23.1113 136.966 22.4687 137.293 21.6274L138.135 24.1512C137.737 25.3664 137.013 26.2894 135.961 26.9204C134.91 27.5513 133.555 27.8668 131.895 27.8668ZM156.961 27.8668C154.928 27.8668 153.117 27.4578 151.528 26.6399C149.939 25.7987 148.689 24.6419 147.777 23.1697C146.889 21.6975 146.445 20.0267 146.445 18.1572C146.445 16.2644 146.889 14.5935 147.777 13.1447C148.689 11.6725 149.939 10.5274 151.528 9.70951C153.117 8.86824 154.928 8.44761 156.961 8.44761C158.948 8.44761 160.677 8.86824 162.149 9.70951C163.621 10.5274 164.708 11.7075 165.409 13.2498L161.168 15.5283C160.677 14.6402 160.058 13.9859 159.31 13.5653C158.585 13.1447 157.791 12.9344 156.926 12.9344C155.991 12.9344 155.15 13.1447 154.402 13.5653C153.655 13.9859 153.059 14.5818 152.615 15.353C152.194 16.1241 151.984 17.0589 151.984 18.1572C151.984 19.2555 152.194 20.1903 152.615 20.9614C153.059 21.7326 153.655 22.3285 154.402 22.7491C155.15 23.1697 155.991 23.38 156.926 23.38C157.791 23.38 158.585 23.1814 159.31 22.7842C160.058 22.3635 160.677 21.6975 161.168 20.7862L165.409 23.0996C164.708 24.6186 163.621 25.7987 162.149 26.6399C160.677 27.4578 158.948 27.8668 156.961 27.8668ZM168.455 27.5864V8.72803H173.923V27.5864H168.455ZM171.189 6.09908C170.184 6.09908 169.366 5.80698 168.735 5.22277C168.104 4.63856 167.789 3.91413 167.789 3.0495C167.789 2.18487 168.104 1.46045 168.735 0.876237C169.366 0.292026 170.184 -8.03486e-05 171.189 -8.03486e-05C172.194 -8.03486e-05 173.012 0.280342 173.643 0.841185C174.273 1.37866 174.589 2.07971 174.589 2.94435C174.589 3.85571 174.273 4.61519 173.643 5.22277C173.035 5.80698 172.217 6.09908 171.189 6.09908ZM179.664 27.5864V8.3074C179.664 6.18087 180.295 4.48666 181.557 3.22476C182.819 1.9395 184.618 1.29687 186.955 1.29687C187.749 1.29687 188.509 1.37866 189.233 1.54224C189.981 1.70582 190.612 1.96287 191.126 2.3134L189.689 6.27435C189.385 6.06403 189.046 5.90045 188.672 5.78361C188.299 5.66677 187.901 5.60835 187.481 5.60835C186.686 5.60835 186.067 5.84203 185.623 6.3094C185.202 6.7534 184.992 7.43109 184.992 8.34245V10.0951L185.132 12.4436V27.5864H179.664ZM176.755 13.355V9.14867H189.829V13.355H176.755ZM192.914 27.5864V8.72803H198.382V27.5864H192.914ZM195.648 6.09908C194.643 6.09908 193.825 5.80698 193.194 5.22277C192.563 4.63856 192.248 3.91413 192.248 3.0495C192.248 2.18487 192.563 1.46045 193.194 0.876237C193.825 0.292026 194.643 -8.03486e-05 195.648 -8.03486e-05C196.653 -8.03486e-05 197.471 0.280342 198.102 0.841185C198.733 1.37866 199.048 2.07971 199.048 2.94435C199.048 3.85571 198.733 4.61519 198.102 5.22277C197.494 5.80698 196.676 6.09908 195.648 6.09908ZM212.553 27.8668C210.52 27.8668 208.709 27.4578 207.119 26.6399C205.53 25.7987 204.28 24.6419 203.369 23.1697C202.481 21.6975 202.037 20.0267 202.037 18.1572C202.037 16.2644 202.481 14.5935 203.369 13.1447C204.28 11.6725 205.53 10.5274 207.119 9.70951C208.709 8.86824 210.52 8.44761 212.553 8.44761C214.539 8.44761 216.268 8.86824 217.74 9.70951C219.213 10.5274 220.299 11.7075 221 13.2498L216.759 15.5283C216.268 14.6402 215.649 13.9859 214.901 13.5653C214.177 13.1447 213.382 12.9344 212.518 12.9344C211.583 12.9344 210.742 13.1447 209.994 13.5653C209.246 13.9859 208.65 14.5818 208.206 15.353C207.785 16.1241 207.575 17.0589 207.575 18.1572C207.575 19.2555 207.785 20.1903 208.206 20.9614C208.65 21.7326 209.246 22.3285 209.994 22.7491C210.742 23.1697 211.583 23.38 212.518 23.38C213.382 23.38 214.177 23.1814 214.901 22.7842C215.649 22.3635 216.268 21.6975 216.759 20.7862L221 23.0996C220.299 24.6186 219.213 25.7987 217.74 26.6399C216.268 27.4578 214.539 27.8668 212.553 27.8668Z" fill="url(#paint0_linear_210_46)"/>
<defs>
<linearGradient id="paint0_linear_210_46" x1="-0.911526" y1="15.0676" x2="222.424" y2="15.0676" gradientUnits="userSpaceOnUse">
<stop stop-color="#1599EA"/>
<stop offset="1" stop-color="#0064F4"/>
</linearGradient>
</defs>
</svg>
